<?xml version="1.0" standalone="no"?>
<!DOCTYPE svg PUBLIC "-//W3C//DTD SVG 20010904//EN"
 "http://www.w3.org/TR/2001/REC-SVG-20010904/DTD/svg10.dtd">
<svg version="1.0" xmlns="http://www.w3.org/2000/svg"
 width="150.000000pt" height="150.000000pt" viewBox="0 0 150.000000 150.000000"
 preserveAspectRatio="xMidYMid meet">
<metadata>
Created by potrace 1.14, written by Peter Selinger 2001-2017
</metadata>
<g transform="translate(0.000000,150.000000) scale(0.100000,-0.100000)"
fill="#000000" stroke="none">
<path d="M530 1394 c-106 -28 -180 -72 -265 -158 -124 -125 -175 -247 -175
-416 0 -200 81 -355 260 -501 134 -109 241 -149 400 -149 168 0 299 53 413
166 178 178 223 456 108 681 -38 76 -147 210 -213 263 -63 51 -172 103 -246
119 -73 15 -215 13 -282 -5z m285 -69 c192 -50 350 -229 374 -422 34 -276
-129 -516 -391 -578 -262 -62 -532 93 -610 348 -17 57 -20 87 -16 182 4 107 6
118 43 192 66 133 192 241 326 277 72 19 201 20 274 1z"/>
<path d="M583 1245 c-86 -19 -153 -57 -218 -126 -242 -253 -100 -671 248 -730
133 -22 266 20 368 117 182 174 182 454 0 628 -66 62 -138 100 -221 116 -67
13 -100 12 -177 -5z m250 -88 c168 -77 253 -267 198 -443 -11 -38 -27 -77 -35
-87 -12 -16 -14 4 -18 150 -3 150 -6 173 -26 210 -31 60 -86 112 -150 141 -47
21 -64 24 -132 20 -89 -5 -145 -32 -200 -94 -63 -72 -69 -100 -70 -294 l-1
-175 -24 30 c-58 71 -79 211 -47 312 37 116 139 218 249 249 74 21 187 13 256
-19z m-79 -278 c87 -68 64 -195 -41 -230 -28 -9 -43 -8 -78 6 -93 35 -114 145
-41 212 30 28 43 33 85 33 34 0 56 -6 75 -21z"/>
<path d="M619 831 c-17 -18 -29 -40 -29 -56 0 -36 50 -85 87 -85 64 0 103 57
79 115 -26 62 -89 74 -137 26z"/>
</g>
</svg>
